<?xml version="1.0" encoding="UTF-8"?>
<svg xmlns="http://www.w3.org/2000/svg" xmlns:xlink="http://www.w3.org/1999/xlink" width="165pt" height="165pt" viewBox="0 0 165 165" version="1.2">
<g id="surface1" transform="translate(32, 0)">
<path fill="#eff1f3" d="M 83.023438 0 C 37.714844 0 1.0625 36.695312 1.0625 82.003906 C 1.0625 127.308594 37.714844 164.007812 83.023438 164.007812 C 128.328125 164.007812 165.066406 127.308594 165.066406 82.003906 C 165.066406 36.695312 128.328125 0 83.023438 0 Z M 83.0625 147.605469 C 46.820312 147.605469 17.460938 118.25 17.460938 82.003906 C 17.460938 45.757812 46.820312 16.402344 83.0625 16.402344 C 119.308594 16.402344 148.667969 45.757812 148.667969 82.003906 C 148.667969 118.25 119.308594 147.605469 83.0625 147.605469 Z M 83.0625 147.605469 "/>
<path fill="#eff1f3" d="M 87.164062 41 L 74.863281 41 L 74.863281 90.203125 L 117.875 116.035156 L 124.066406 105.949219 L 87.164062 84.054688 Z M 87.164062 41 "/>
</g>
</svg>