<?xml version="1.0" encoding="UTF-8"?>
<svg xmlns="http://www.w3.org/2000/svg" xmlns:xlink="http://www.w3.org/1999/xlink" width="375pt" height="312pt" viewBox="0 0 312 375" version="1.2">
<g id="surface1">
<path fill="#eff1f3" transform="rotate(90) translate(0 -156)" d="M 50.515625 311.902344 C 32.070312 311.902344 13.847656 301.324219 5.171875 285.582031 C -2.746094 271.222656 -1.90625 254.519531 7.472656 239.757812 L 144.609375 23.851562 C 153.800781 9.382812 169.269531 0.738281 185.988281 0.738281 C 202.71875 0.738281 218.285156 9.339844 227.628906 23.742188 L 367.628906 239.648438 C 377.148438 254.320312 378.109375 270.964844 370.289062 285.3125 C 361.667969 301.128906 343.378906 311.746094 324.785156 311.746094 C 324.785156 311.746094 324.785156 311.746094 324.773438 311.746094 C 308.480469 311.746094 293.863281 303.621094 284.683594 289.464844 L 186.578125 138.191406 L 90.566406 289.355469 C 81.460938 303.6875 66.867188 311.902344 50.515625 311.902344 Z M 185.988281 27.902344 C 178.535156 27.902344 171.828125 31.726562 167.59375 38.394531 L 30.460938 254.296875 C 26.382812 260.710938 25.898438 266.835938 29.019531 272.496094 C 32.929688 279.589844 41.96875 284.738281 50.515625 284.738281 C 57.652344 284.738281 63.394531 281.398438 67.582031 274.816406 L 186.335938 87.835938 L 307.523438 274.710938 C 311.773438 281.257812 317.582031 284.582031 324.78125 284.582031 C 333.425781 284.582031 342.511719 279.433594 346.382812 272.332031 C 349.421875 266.761719 348.882812 260.726562 344.78125 254.402344 L 204.777344 38.5 C 200.410156 31.765625 193.5625 27.902344 185.988281 27.902344 Z M 185.988281 27.902344 "/>
</g>
</svg>