<?xml version="1.0" encoding="UTF-8"?>
<svg xmlns="http://www.w3.org/2000/svg" xmlns:xlink="http://www.w3.org/1999/xlink" width="150pt" height="150pt" viewBox="0 0 150 150" version="1.2">
<g id="surface1">
<path style="stroke:none;fill-rule:nonzero;fill:rgb(18.03894%,30.979919%,42.349243%);fill-opacity:1;" d="M 75 0 C 73.773438 0 72.546875 0.03125 71.320312 0.0898438 C 70.09375 0.152344 68.871094 0.242188 67.648438 0.359375 C 66.425781 0.480469 65.210938 0.632812 63.996094 0.8125 C 62.78125 0.992188 61.570312 1.203125 60.367188 1.441406 C 59.164062 1.679688 57.96875 1.949219 56.777344 2.246094 C 55.585938 2.546875 54.402344 2.875 53.230469 3.230469 C 52.054688 3.585938 50.890625 3.96875 49.734375 4.382812 C 48.578125 4.796875 47.433594 5.238281 46.296875 5.710938 C 45.164062 6.179688 44.042969 6.675781 42.933594 7.199219 C 41.824219 7.726562 40.726562 8.277344 39.644531 8.855469 C 38.5625 9.433594 37.496094 10.039062 36.441406 10.671875 C 35.390625 11.300781 34.351562 11.957031 33.332031 12.640625 C 32.3125 13.320312 31.308594 14.027344 30.324219 14.757812 C 29.335938 15.492188 28.371094 16.246094 27.421875 17.023438 C 26.472656 17.804688 25.542969 18.605469 24.632812 19.429688 C 23.722656 20.253906 22.835938 21.097656 21.96875 21.96875 C 21.097656 22.835938 20.253906 23.722656 19.429688 24.632812 C 18.605469 25.542969 17.804688 26.472656 17.023438 27.421875 C 16.246094 28.371094 15.492188 29.335938 14.757812 30.324219 C 14.027344 31.308594 13.320312 32.3125 12.640625 33.332031 C 11.957031 34.351562 11.300781 35.390625 10.671875 36.441406 C 10.039062 37.496094 9.433594 38.5625 8.855469 39.644531 C 8.277344 40.726562 7.726562 41.824219 7.199219 42.933594 C 6.675781 44.042969 6.179688 45.164062 5.710938 46.296875 C 5.238281 47.433594 4.796875 48.578125 4.382812 49.734375 C 3.96875 50.890625 3.585938 52.054688 3.230469 53.230469 C 2.875 54.402344 2.546875 55.585938 2.246094 56.777344 C 1.949219 57.96875 1.679688 59.164062 1.441406 60.367188 C 1.203125 61.570312 0.992188 62.78125 0.8125 63.996094 C 0.632812 65.210938 0.480469 66.425781 0.359375 67.648438 C 0.242188 68.871094 0.152344 70.09375 0.0898438 71.320312 C 0.03125 72.546875 0 73.773438 0 75 C 0 76.226562 0.03125 77.453125 0.0898438 78.679688 C 0.152344 79.90625 0.242188 81.128906 0.359375 82.351562 C 0.480469 83.574219 0.632812 84.789062 0.8125 86.003906 C 0.992188 87.21875 1.203125 88.429688 1.441406 89.632812 C 1.679688 90.835938 1.949219 92.03125 2.246094 93.222656 C 2.546875 94.414062 2.875 95.597656 3.230469 96.769531 C 3.585938 97.945312 3.96875 99.109375 4.382812 100.265625 C 4.796875 101.421875 5.238281 102.566406 5.710938 103.703125 C 6.179688 104.835938 6.675781 105.957031 7.199219 107.066406 C 7.726562 108.175781 8.277344 109.273438 8.855469 110.355469 C 9.433594 111.4375 10.039062 112.503906 10.671875 113.558594 C 11.300781 114.609375 11.957031 115.648438 12.640625 116.667969 C 13.320312 117.6875 14.027344 118.691406 14.757812 119.675781 C 15.492188 120.664062 16.246094 121.628906 17.023438 122.578125 C 17.804688 123.527344 18.605469 124.457031 19.429688 125.367188 C 20.253906 126.277344 21.097656 127.164062 21.96875 128.03125 C 22.835938 128.902344 23.722656 129.746094 24.632812 130.570312 C 25.542969 131.394531 26.472656 132.195312 27.421875 132.976562 C 28.371094 133.753906 29.335938 134.507812 30.324219 135.242188 C 31.308594 135.972656 32.3125 136.679688 33.332031 137.359375 C 34.351562 138.042969 35.390625 138.699219 36.441406 139.328125 C 37.496094 139.960938 38.5625 140.566406 39.644531 141.144531 C 40.726562 141.722656 41.824219 142.273438 42.933594 142.800781 C 44.042969 143.324219 45.164062 143.820312 46.296875 144.289062 C 47.433594 144.761719 48.578125 145.203125 49.734375 145.617188 C 50.890625 146.027344 52.054688 146.414062 53.230469 146.769531 C 54.402344 147.125 55.585938 147.453125 56.777344 147.753906 C 57.96875 148.050781 59.164062 148.320312 60.367188 148.558594 C 61.570312 148.796875 62.78125 149.007812 63.996094 149.1875 C 65.210938 149.367188 66.425781 149.519531 67.648438 149.640625 C 68.871094 149.757812 70.09375 149.847656 71.320312 149.910156 C 72.546875 149.96875 73.773438 150 75 150 C 76.226562 150 77.453125 149.96875 78.679688 149.910156 C 79.90625 149.847656 81.128906 149.757812 82.351562 149.640625 C 83.574219 149.519531 84.789062 149.367188 86.003906 149.1875 C 87.21875 149.007812 88.429688 148.796875 89.632812 148.558594 C 90.835938 148.320312 92.03125 148.050781 93.222656 147.753906 C 94.414062 147.453125 95.597656 147.125 96.769531 146.769531 C 97.945312 146.414062 99.109375 146.027344 100.265625 145.617188 C 101.421875 145.203125 102.566406 144.761719 103.703125 144.289062 C 104.835938 143.820312 105.957031 143.324219 107.066406 142.800781 C 108.175781 142.273438 109.273438 141.722656 110.355469 141.144531 C 111.4375 140.566406 112.503906 139.960938 113.558594 139.328125 C 114.609375 138.699219 115.648438 138.042969 116.667969 137.359375 C 117.6875 136.679688 118.691406 135.972656 119.675781 135.242188 C 120.664062 134.507812 121.628906 133.753906 122.578125 132.976562 C 123.527344 132.195312 124.457031 131.394531 125.367188 130.570312 C 126.277344 129.746094 127.164062 128.902344 128.03125 128.03125 C 128.902344 127.164062 129.746094 126.277344 130.570312 125.367188 C 131.394531 124.457031 132.195312 123.527344 132.976562 122.578125 C 133.753906 121.628906 134.507812 120.664062 135.242188 119.675781 C 135.972656 118.691406 136.679688 117.6875 137.359375 116.667969 C 138.042969 115.648438 138.699219 114.609375 139.328125 113.558594 C 139.960938 112.503906 140.566406 111.4375 141.144531 110.355469 C 141.722656 109.273438 142.273438 108.175781 142.800781 107.066406 C 143.324219 105.957031 143.820312 104.835938 144.289062 103.703125 C 144.761719 102.566406 145.203125 101.421875 145.617188 100.265625 C 146.027344 99.109375 146.414062 97.945312 146.769531 96.769531 C 147.125 95.597656 147.453125 94.414062 147.753906 93.222656 C 148.050781 92.03125 148.320312 90.835938 148.558594 89.632812 C 148.796875 88.429688 149.007812 87.21875 149.1875 86.003906 C 149.367188 84.789062 149.519531 83.574219 149.640625 82.351562 C 149.757812 81.128906 149.847656 79.90625 149.910156 78.679688 C 149.96875 77.453125 150 76.226562 150 75 C 150 73.773438 149.96875 72.546875 149.910156 71.320312 C 149.847656 70.09375 149.757812 68.871094 149.640625 67.648438 C 149.519531 66.425781 149.367188 65.210938 149.1875 63.996094 C 149.007812 62.78125 148.796875 61.570312 148.558594 60.367188 C 148.320312 59.164062 148.050781 57.96875 147.753906 56.777344 C 147.453125 55.585938 147.125 54.402344 146.769531 53.230469 C 146.414062 52.054688 146.027344 50.890625 145.617188 49.734375 C 145.203125 48.578125 144.761719 47.433594 144.289062 46.296875 C 143.820312 45.164062 143.324219 44.042969 142.800781 42.933594 C 142.273438 41.824219 141.722656 40.726562 141.144531 39.644531 C 140.566406 38.5625 139.960938 37.496094 139.328125 36.441406 C 138.699219 35.390625 138.042969 34.351562 137.359375 33.332031 C 136.679688 32.3125 135.972656 31.308594 135.242188 30.324219 C 134.507812 29.335938 133.753906 28.371094 132.976562 27.421875 C 132.195312 26.472656 131.394531 25.542969 130.570312 24.632812 C 129.746094 23.722656 128.902344 22.835938 128.03125 21.96875 C 127.164062 21.097656 126.277344 20.253906 125.367188 19.429688 C 124.457031 18.605469 123.527344 17.804688 122.578125 17.023438 C 121.628906 16.246094 120.664062 15.492188 119.675781 14.757812 C 118.691406 14.027344 117.6875 13.320312 116.667969 12.640625 C 115.648438 11.957031 114.609375 11.300781 113.558594 10.671875 C 112.503906 10.039062 111.4375 9.433594 110.355469 8.855469 C 109.273438 8.277344 108.175781 7.726562 107.066406 7.199219 C 105.957031 6.675781 104.835938 6.179688 103.703125 5.710938 C 102.566406 5.238281 101.421875 4.796875 100.265625 4.382812 C 99.109375 3.96875 97.945312 3.585938 96.769531 3.230469 C 95.597656 2.875 94.414062 2.546875 93.222656 2.246094 C 92.03125 1.949219 90.835938 1.679688 89.632812 1.441406 C 88.429688 1.203125 87.21875 0.992188 86.003906 0.8125 C 84.789062 0.632812 83.574219 0.480469 82.351562 0.359375 C 81.128906 0.242188 79.90625 0.152344 78.679688 0.0898438 C 77.453125 0.03125 76.226562 0 75 0 Z M 75 0 "/>
<path style="stroke:none;fill-rule:nonzero;fill:rgb(100%,100%,100%);fill-opacity:1;" d="M 74.582031 41.703125 C 65.363281 41.703125 57.894531 49.171875 57.894531 58.390625 C 57.894531 67.589844 65.363281 75.078125 74.582031 75.078125 C 83.804688 75.078125 91.269531 67.589844 91.269531 58.390625 C 91.269531 49.171875 83.804688 41.703125 74.582031 41.703125 Z M 74.582031 83.421875 C 63.464844 83.421875 41.207031 88.992188 41.207031 100.109375 L 41.207031 108.453125 L 107.957031 108.453125 L 107.957031 100.109375 C 107.957031 88.992188 85.703125 83.421875 74.582031 83.421875 Z M 74.582031 83.421875 "/>
</g>
</svg>
